<?xml version="1.0" standalone="no"?>
<!DOCTYPE svg PUBLIC "-//W3C//DTD SVG 20010904//EN"
 "http://www.w3.org/TR/2001/REC-SVG-20010904/DTD/svg10.dtd">
<svg version="1.0" xmlns="http://www.w3.org/2000/svg"
 width="300.000000pt" height="300.000000pt" viewBox="0 0 300.000000 300.000000"
 preserveAspectRatio="xMidYMid meet">
<metadata>
Created by potrace 1.14, written by Peter Selinger 2001-2017
</metadata>
<g transform="translate(0.000000,300.000000) scale(0.100000,-0.100000)"
fill="#000000" stroke="none">
<path d="M1298 2953 c-43 -46 -59 -75 -60 -112 -1 -27 -1 -27 -67 -26 -38 1
-79 8 -97 18 -16 8 -35 12 -40 9 -14 -9 -34 -69 -34 -102 0 -37 -9 -42 -39
-21 -72 50 -186 64 -250 31 -104 -52 -146 -196 -78 -268 14 -15 34 -42 45 -61
20 -33 20 -36 4 -63 -15 -26 -15 -29 6 -51 28 -29 27 -35 -3 -107 -40 -96 -29
-201 24 -230 29 -15 73 -12 99 6 13 9 26 13 30 10 10 -11 -27 -147 -56 -205
-38 -77 -125 -161 -205 -200 -172 -81 -299 -71 -565 46 -6 3 -12 1 -12 -5 0
-16 160 -88 237 -107 40 -9 70 -21 67 -26 -3 -5 7 -10 23 -10 18 -1 22 -3 10
-6 -25 -7 -135 13 -237 43 -94 27 -100 28 -100 15 0 -15 147 -61 257 -80 l108
-18 -38 -16 c-49 -21 -251 -67 -294 -67 -23 0 -33 -5 -33 -15 0 -12 10 -14 48
-9 83 9 231 46 319 78 29 11 57 14 89 9 l46 -6 -49 -30 c-26 -16 -55 -37 -63
-46 -29 -31 -95 -76 -130 -88 -47 -17 -63 -16 -98 4 -27 16 -33 16 -96 -1 -65
-18 -66 -19 -66 -52 0 -23 6 -37 19 -44 30 -15 72 -12 87 8 10 14 31 18 108
20 53 2 96 8 96 13 0 4 19 14 43 21 55 16 63 16 59 -1 -1 -7 3 -19 9 -27 12
-15 11 -16 -36 -20 -16 -1 -68 -8 -115 -14 -47 -6 -102 -12 -122 -12 -44 -1
-46 -4 -16 -29 11 -11 16 -19 9 -19 -7 0 -23 -11 -36 -24 -30 -30 -18 -43 45
-45 67 -3 69 -3 75 -19 6 -15 -2 -15 -177 4 l-48 5 0 -35 c0 -20 4 -36 9 -36
5 0 23 -12 40 -26 30 -25 101 -45 101 -28 0 17 196 81 286 94 71 10 85 1 61
-39 -9 -16 -17 -42 -17 -58 0 -35 -21 -56 -106 -106 -40 -24 -67 -34 -82 -30
-12 3 -50 0 -84 -6 -35 -5 -96 -16 -135 -22 -71 -12 -73 -13 -73 -41 l0 -28
90 0 c62 0 104 6 137 18 26 10 55 17 64 15 27 -6 169 36 248 72 40 19 80 35
88 35 8 0 12 4 9 9 -3 5 5 16 19 25 29 19 35 20 35 5 0 -5 -4 -8 -9 -4 -10 6
-25 -13 -26 -32 0 -25 -82 -106 -130 -129 -27 -14 -95 -36 -149 -50 -89 -23
-114 -26 -238 -22 -76 2 -138 0 -138 -4 0 -32 260 -30 380 2 89 24 244 83 267
101 18 16 17 4 -13 -92 -18 -59 -27 -116 -31 -194 -6 -135 2 -172 48 -203 66
-46 192 -15 281 69 45 42 237 308 273 378 22 44 24 39 65 -117 28 -107 30
-127 20 -153 -11 -25 -10 -32 5 -49 15 -16 17 -34 13 -122 -3 -67 -10 -113
-20 -133 -26 -50 -31 -75 -15 -75 17 0 47 65 78 171 31 106 38 114 84 98 28
-10 40 -11 55 -1 15 9 22 9 34 -3 17 -17 146 -22 146 -5 0 6 12 10 28 11 15 0
36 4 47 8 11 5 28 3 38 -3 15 -9 22 -7 37 12 21 25 80 31 99 8 10 -12 19 -11
62 1 41 12 56 13 80 3 25 -11 32 -10 49 5 11 10 22 16 23 14 2 -2 0 -56 -5
-119 -8 -97 -6 -121 7 -157 l17 -43 64 0 c49 0 64 3 64 14 0 8 -4 16 -9 18
-12 4 10 100 28 122 7 9 21 16 29 16 12 0 13 -3 4 -12 -14 -14 -16 -98 -3 -98
12 0 21 26 21 60 0 35 17 49 22 18 5 -33 -13 -102 -29 -111 -27 -17 -11 -27
42 -27 30 0 55 3 55 6 0 4 -9 22 -21 41 -16 25 -18 37 -10 47 6 7 9 28 5 47
-5 32 -5 33 10 15 9 -11 16 -26 16 -34 0 -7 8 -12 18 -10 11 2 16 11 14 27 -2
15 0 21 7 17 6 -4 11 0 11 8 0 9 8 16 19 16 26 0 99 -40 105 -57 3 -8 -3 -34
-14 -58 -23 -50 -25 -68 -8 -63 26 9 48 73 48 141 0 74 -9 101 -41 117 -17 10
-30 5 -83 -29 -56 -37 -65 -40 -96 -31 -49 14 -80 12 -138 -6 -48 -16 -53 -16
-76 0 -14 9 -32 16 -41 16 -12 0 -15 13 -15 58 0 92 32 117 91 71 48 -38 123
-69 163 -69 46 0 78 29 110 99 45 100 55 183 66 516 5 171 12 342 16 380 7 83
-11 255 -30 294 -20 38 -174 173 -212 185 -20 6 -32 -1 -125 -73 l-26 -21 -87
61 c-102 71 -156 139 -186 233 l-22 65 32 59 c17 32 51 82 75 112 62 75 85
126 85 187 0 66 -26 104 -119 170 -52 38 -69 55 -58 59 24 9 30 57 13 98 -9
21 -11 38 -5 41 18 12 9 35 -15 35 -19 0 -30 11 -51 53 -30 58 -82 117 -103
117 -7 0 -24 -24 -37 -52 -20 -44 -24 -48 -24 -26 -1 31 -51 78 -85 78 -34 0
-155 -62 -230 -119 -46 -35 -72 -49 -79 -42 -5 5 -10 35 -11 65 0 47 4 60 32
95 18 22 32 42 32 45 0 17 -30 1 -62 -31z m-48 -188 c16 -19 1 -19 -24 0 -16
12 -17 15 -4 15 8 0 21 -7 28 -15z m480 -131 c36 -97 22 -237 -27 -269 -26
-17 -31 -45 -8 -45 20 0 20 -1 -16 -78 -34 -72 -102 -174 -139 -207 l-23 -20
18 35 c10 19 23 42 29 50 15 19 48 158 40 171 -10 17 -21 9 -53 -42 -22 -36
-36 -49 -47 -45 -9 3 -19 6 -24 6 -4 0 -6 9 -3 20 7 26 -9 26 -24 0 -7 -11
-27 -27 -45 -36 -42 -21 -96 -71 -114 -106 -8 -15 -14 -43 -14 -63 0 -42 -12
-48 -128 -71 -123 -24 -144 -16 -69 26 94 52 191 139 174 156 -3 4 -47 -27
-93 -65 -24 -19 -55 -31 -66 -25 -7 4 -8 3 -4 -4 4 -7 2 -12 -5 -12 -19 0 -3
95 31 182 30 78 36 90 97 185 35 55 63 82 48 47 -18 -44 -55 -166 -55 -182 1
-26 32 19 86 121 33 65 50 87 61 83 8 -3 26 -6 39 -6 19 0 24 -5 24 -27 l1
-28 23 26 c12 14 34 29 49 33 14 3 31 15 37 27 8 14 17 18 32 13 18 -5 20 -2
18 43 -4 75 -3 79 18 60 23 -21 46 -22 62 -2 7 8 18 15 25 15 27 0 25 34 -5
91 -16 32 -30 61 -30 65 0 20 62 -76 80 -122z m-633 94 c15 -17 19 -32 16 -59
-5 -35 -7 -37 -39 -36 -21 1 -34 6 -34 14 0 22 24 103 30 103 4 0 16 -10 27
-22z m399 -13 c9 -38 -12 -57 -59 -53 -29 2 -42 -1 -45 -12 -5 -13 -3 -13 11
-1 23 18 22 8 -1 -13 -18 -16 -21 -14 -56 39 -35 53 -37 65 -7 46 8 -5 30 -4
55 4 68 22 95 19 102 -10z m53 -2 c-7 -10 -15 -20 -16 -22 -2 -2 -3 5 -3 17 0
14 6 22 16 22 14 0 15 -3 3 -17z m-229 -71 c-17 -6 -44 24 -35 39 6 9 13 6 27
-12 14 -16 16 -25 8 -27z m600 12 c0 -21 -4 -33 -10 -29 -5 3 -10 19 -10 36 0
16 5 29 10 29 6 0 10 -16 10 -36z m-765 -24 c3 -5 1 -10 -4 -10 -6 0 -11 5
-11 10 0 6 2 10 4 10 3 0 8 -4 11 -10z m-55 -29 c0 -6 -4 -12 -9 -15 -13 -8
-42 4 -35 15 7 12 44 12 44 0z m77 -23 c17 -22 25 -80 10 -75 -6 2 -11 11 -9
19 1 8 -7 24 -18 36 -11 12 -20 24 -20 27 0 10 28 5 37 -7z m742 -65 c30 15
35 15 59 -1 120 -77 133 -163 45 -278 l-27 -37 -11 49 c-5 27 -14 48 -20 47
-5 -1 -17 -25 -25 -53 -8 -28 -19 -51 -25 -51 -5 0 -13 41 -17 91 -6 71 -15
110 -44 178 -51 124 -52 130 -7 82 l40 -43 32 16z m-109 -5 c0 -4 11 -32 25
-62 14 -31 28 -77 32 -103 l6 -47 -29 28 c-16 15 -42 34 -57 42 -21 11 -26 20
-22 34 3 10 7 52 8 93 l2 75 17 -27 c10 -14 18 -29 18 -33z m-712 16 c2 -14
-7 -24 -33 -37 -46 -22 -48 -21 -39 6 16 53 66 75 72 31z m65 -50 c2 -13 0
-27 -6 -31 -6 -4 -7 -1 -3 8 4 8 -2 3 -13 -11 -11 -14 -23 -33 -27 -42 -3 -10
-11 -18 -19 -18 -36 0 -23 96 18 125 25 17 42 6 50 -31z m-133 -180 c0 -39 -6
-45 -36 -32 -28 13 -29 23 -8 74 l16 38 14 -24 c7 -14 13 -39 14 -56z m813 -2
c22 -13 27 -23 26 -52 0 -31 -1 -32 -9 -12 -11 26 -23 28 -40 7 -7 -8 -18 -15
-25 -15 -7 0 -27 -16 -44 -36 -31 -34 -32 -39 -29 -112 l3 -77 44 -23 c47 -25
101 -23 101 4 0 21 18 17 25 -6 3 -10 6 -50 6 -87 1 -53 -5 -79 -25 -120 -27
-55 -189 -233 -213 -233 -15 0 -182 108 -222 144 -28 25 -81 132 -80 161 0 14
17 28 60 48 35 17 59 35 59 44 0 9 30 45 66 81 76 74 125 147 169 245 l30 68
35 -7 c19 -3 47 -13 63 -22z m-809 -72 c17 0 16 -4 -10 -31 -25 -26 -29 -38
-27 -80 1 -32 7 -57 19 -70 17 -18 16 -19 -21 -19 l-38 0 8 43 c5 23 8 71 7
106 -2 61 -1 63 21 57 12 -3 31 -6 41 -6z m750 -79 c9 -14 -4 -41 -19 -41 -18
0 -26 15 -19 34 7 17 29 21 38 7z m-264 -62 c0 -16 -20 -49 -29 -49 -11 0 -22
40 -15 52 8 12 44 10 44 -3z m-122 -23 c4 -21 -14 -37 -35 -29 -14 5 -18 35
-6 47 12 12 38 1 41 -18z m482 -21 c0 -14 -4 -25 -10 -25 -5 0 -10 11 -10 25
0 14 5 25 10 25 6 0 10 -11 10 -25z m-63 -12 c-4 -33 -37 -43 -57 -18 -11 13
-10 18 6 30 33 25 55 19 51 -12z m-940 -35 c-3 -7 -5 -2 -5 12 0 14 2 19 5 13
2 -7 2 -19 0 -25z m159 -7 c-7 -11 -56 -21 -56 -10 0 4 12 10 28 12 15 2 28 5
30 6 2 0 1 -3 -2 -8z m407 -8 c10 -17 -13 -51 -38 -55 -33 -7 -67 1 -59 13 3
5 -2 9 -12 9 -14 0 -14 2 -3 16 8 10 15 12 17 5 5 -16 49 -13 56 4 6 16 32 21
39 8z m-134 -174 c11 -25 39 -66 61 -91 35 -40 65 -64 174 -138 175 -119 251
-189 283 -260 34 -76 38 -133 15 -200 l-20 -55 0 53 c-1 60 -23 109 -80 181
-60 75 -72 85 -192 156 -63 37 -134 86 -157 109 -53 49 -56 40 -7 -20 20 -24
33 -44 30 -44 -17 0 -136 89 -198 149 -56 54 -74 79 -98 140 -34 83 -37 111
-13 111 16 0 106 24 148 40 18 6 21 2 27 -39 4 -26 16 -67 27 -92z m-282 125
c-3 -3 -12 -4 -19 -1 -8 3 -5 6 6 6 11 1 17 -2 13 -5z m33 -58 c0 -8 3 -23 6
-33 4 -14 1 -13 -15 6 -25 27 -27 41 -6 41 8 0 15 -6 15 -14z m-50 -25 c8 -17
7 -20 -10 -18 -12 1 -20 8 -20 19 0 24 17 23 30 -1z m1027 -100 l42 -38 -24
-11 c-24 -11 -30 -30 -27 -75 2 -15 -4 -13 -38 9 -22 15 -40 28 -40 31 0 2 11
25 24 52 19 36 22 51 13 60 -6 6 -7 11 -1 11 5 -1 28 -18 51 -39z m-917 -43
c19 -32 15 -88 -7 -88 -10 0 -12 4 -4 17 7 14 4 25 -13 48 -13 16 -26 43 -30
60 l-7 29 22 -19 c12 -11 29 -32 39 -47z m859 -87 c49 -50 51 -53 25 -47 -45
11 -105 48 -127 78 -19 25 -19 30 -6 54 l14 26 20 -28 c11 -16 44 -53 74 -83z
m418 79 c14 -16 32 -30 39 -30 7 0 24 -15 38 -33 14 -18 37 -39 50 -47 45 -24
55 -128 42 -445 -4 -104 -15 -230 -23 -280 -8 -49 -19 -132 -24 -183 -13 -128
-45 -183 -128 -218 -30 -13 -81 -19 -81 -11 0 2 13 28 30 58 41 75 40 122 -6
217 l-37 76 13 70 c6 39 34 136 61 216 26 80 52 163 57 185 7 34 13 41 37 46
29 5 29 6 -22 28 -63 28 -70 43 -13 28 26 -7 49 -8 66 -2 33 12 44 35 17 35
-31 0 -36 13 -11 32 29 22 5 24 -35 3 -27 -14 -30 -13 -47 8 -17 19 -17 24 -4
44 16 26 19 63 4 63 -5 0 -10 -9 -10 -20 0 -11 -12 -39 -27 -61 -28 -43 -56
-48 -61 -11 -4 24 7 29 26 10 9 -9 12 -7 12 10 0 13 -6 25 -14 28 -11 4 -13
12 -5 31 5 13 9 36 8 51 0 21 -4 16 -20 -26 l-21 -52 -29 21 c-34 24 -36 37
-9 89 25 50 10 53 -20 4 -24 -38 -36 -39 -26 -1 7 30 92 97 123 97 13 0 34
-13 50 -30z m-453 -128 c24 -12 81 -33 127 -48 135 -43 168 -60 175 -88 4 -19
15 -27 40 -32 36 -7 75 -45 102 -101 15 -31 14 -38 -16 -130 -17 -54 -46 -140
-65 -192 l-34 -94 -14 114 c-8 63 -13 122 -12 131 2 10 -6 33 -17 50 -11 18
-20 41 -20 50 0 10 -15 35 -34 56 -22 24 -36 50 -38 72 -3 40 -29 51 -57 26
-14 -13 -24 -14 -49 -5 -22 7 -36 7 -51 -1 -12 -6 -49 -13 -84 -16 l-62 -5
-29 40 c-16 22 -51 58 -77 78 l-48 38 76 76 75 77 34 -38 c19 -21 54 -47 78
-58z m-776 65 c2 -9 -2 -17 -8 -17 -7 0 -10 6 -7 14 3 8 2 17 -4 20 -5 2 -4 3
3 2 7 -1 14 -10 16 -19z m-468 -16 c0 -5 3 -16 6 -24 6 -18 -29 -57 -51 -57
-8 0 -15 6 -15 14 0 8 -7 16 -16 18 -12 2 -6 11 22 31 41 28 54 33 54 18z
m533 -33 c18 -12 34 -23 37 -25 2 -2 -2 -8 -10 -13 -11 -7 -23 -1 -42 17 -46
44 -36 57 15 21z m-26 -50 c51 -50 64 -80 43 -93 -5 -3 -16 10 -24 28 -8 19
-20 38 -27 42 -9 6 -10 3 -5 -11 15 -35 19 -104 7 -118 -6 -7 -21 -13 -34 -12
-17 1 -25 11 -38 51 -21 66 -32 43 -13 -28 15 -60 8 -97 -20 -97 -14 0 -66 92
-66 116 0 8 -4 14 -10 14 -16 0 -11 -31 11 -79 31 -70 6 -95 -46 -47 -43 40
-111 56 -73 18 10 -10 10 -15 -2 -22 -10 -6 -11 -12 -5 -18 16 -15 105 -33
128 -26 39 11 5 -14 -38 -29 -39 -14 -40 -15 -47 -73 -3 -32 -6 -144 -6 -249
0 -211 -23 -385 -62 -460 l-21 -40 7 35 7 35 -62 -58 c-51 -47 -68 -57 -97
-57 -44 0 -94 25 -94 48 0 63 27 176 85 362 13 41 35 120 50 175 15 55 36 129
47 165 11 36 24 97 28 136 5 38 19 101 32 139 19 58 29 72 58 88 19 10 44 27
56 38 11 10 27 19 36 19 8 0 32 14 53 30 55 43 80 39 142 -22z m93 -32 c0 -8
-4 -18 -10 -21 -5 -3 -10 3 -10 14 0 12 5 21 10 21 6 0 10 -6 10 -14z m996
-11 c4 -14 3 -29 0 -33 -9 -8 -26 18 -26 41 0 26 19 20 26 -8z m-970 -49 c-4
-25 -12 -49 -18 -52 -8 -5 -9 1 -4 17 4 13 9 39 13 57 9 49 16 30 9 -22z m126
0 c26 -39 -4 -76 -61 -76 -36 0 -44 11 -32 42 5 13 12 35 16 51 l5 27 33 -16
c17 -9 35 -22 39 -28z m853 -16 c8 -13 -5 -13 -25 0 -13 8 -13 10 2 10 9 0 20
-4 23 -10z m100 0 c3 -5 1 -10 -4 -10 -6 0 -11 5 -11 10 0 6 2 10 4 10 3 0 8
-4 11 -10z m-791 -75 c15 -23 15 -25 -1 -25 -10 0 -28 3 -40 6 -19 5 -21 10
-12 25 13 26 34 24 53 -6z m-298 -22 c50 -65 80 -117 97 -167 18 -51 22 -84
10 -73 -4 4 -13 -7 -20 -25 l-14 -33 -25 40 c-13 22 -24 48 -24 57 0 19 -81
151 -99 163 -26 15 1 75 34 75 7 0 26 -17 41 -37z m-136 6 c0 -5 -4 -9 -10 -9
-5 0 -10 7 -10 16 0 8 5 12 10 9 6 -3 10 -10 10 -16z m860 6 c21 -11 30 -23
30 -39 0 -14 5 -26 12 -28 19 -7 23 -138 5 -162 -13 -17 -15 -15 -26 30 -18
73 -47 177 -56 197 -9 21 -2 21 35 2z m-663 -21 c15 -14 36 -32 45 -41 9 -9
24 -13 33 -9 9 3 18 0 21 -8 3 -9 18 -14 35 -14 16 1 37 -6 47 -14 51 -44 109
-43 159 4 l21 20 7 -22 c5 -16 -1 -28 -26 -50 -19 -16 -31 -31 -28 -35 8 -8
62 13 71 28 21 31 37 -63 22 -120 -5 -18 -11 -22 -30 -17 -15 4 -34 0 -49 -10
-15 -10 -26 -12 -30 -6 -11 18 -71 11 -99 -11 -15 -11 -32 -18 -39 -15 -57 30
-61 35 -88 128 -15 51 -26 94 -25 95 1 2 27 -4 57 -13 30 -8 65 -17 79 -20
l25 -6 -25 21 c-26 21 -91 41 -133 41 -18 0 -32 12 -55 50 -17 28 -29 50 -27
50 2 0 17 -12 32 -26z m613 -20 c19 -44 64 -243 56 -251 -2 -2 -15 1 -29 6
-25 10 -63 5 -82 -10 -16 -12 -87 15 -74 28 6 6 16 44 23 84 l12 74 45 12 44
13 -52 -3 c-50 -2 -53 -1 -59 25 -3 15 -10 30 -15 33 -21 14 -6 24 39 28 26 2
52 4 59 5 7 1 21 -19 33 -44z m-307 4 c-6 -10 -120 -10 -126 0 -3 4 26 7 63 7
37 0 66 -3 63 -7z m-510 -25 c-7 -2 -19 -2 -25 0 -7 3 -2 5 12 5 14 0 19 -2
13 -5z m457 -23 c0 -23 -29 -27 -48 -8 -19 19 -14 28 18 28 23 0 30 -4 30 -20z
m70 10 c0 -5 -2 -10 -4 -10 -3 0 -8 5 -11 10 -3 6 -1 10 4 10 6 0 11 -4 11
-10z m-570 -27 c0 -5 -12 -17 -27 -27 -25 -18 -25 -11 0 22 10 13 27 16 27 5z
m37 -110 c34 -38 45 -45 52 -34 7 11 10 9 13 -10 2 -17 13 -27 35 -34 46 -15
51 -24 24 -44 -29 -22 -22 -53 14 -69 25 -12 33 -36 15 -47 -5 -3 -35 -52 -66
-108 -69 -122 -143 -235 -195 -298 -31 -37 -43 -45 -63 -42 -46 9 -50 23 -37
152 6 66 11 161 11 213 0 87 18 196 39 235 5 10 21 44 36 76 35 75 60 77 122
10z m-729 9 c5 -17 -27 -27 -41 -13 -9 9 -8 14 3 21 18 11 32 8 38 -8z m26
-65 c13 -37 -1 -59 -45 -69 -39 -9 -99 -2 -99 12 0 5 12 13 28 16 38 9 52 23
52 51 0 21 4 24 27 21 20 -2 30 -11 37 -31z m513 -29 c-3 -8 -6 -5 -6 6 -1 11
2 17 5 13 3 -3 4 -12 1 -19z m1188 -85 c3 -16 39 -77 79 -138 80 -120 111
-191 97 -227 -7 -19 -9 -17 -13 18 -9 63 -34 113 -64 124 -31 12 -134 15 -186
5 -35 -7 -38 -5 -38 16 0 62 -65 139 -117 139 -13 0 -14 3 -5 12 21 21 13 27
-18 16 -17 -5 -37 -22 -45 -37 l-14 -26 -1 33 c0 22 -5 32 -15 32 -9 0 -15 -9
-15 -25 0 -25 -18 -33 -35 -16 -16 15 -59 25 -51 12 5 -7 -2 -11 -16 -11 -33
0 -68 -27 -84 -66 -13 -31 -12 -50 2 -105 3 -12 -6 -16 -48 -18 -61 -3 -131
-31 -170 -68 -28 -27 -37 -77 -22 -117 9 -23 25 -20 106 18 76 35 102 44 142
52 14 2 35 8 48 13 43 17 198 -86 198 -132 0 -22 -30 -56 -78 -89 -51 -35 -78
-38 -235 -27 -68 5 -82 10 -118 39 -64 51 -84 105 -80 220 2 52 4 113 5 135 0
27 -7 51 -22 72 -28 39 -28 54 1 81 28 27 164 44 642 81 175 13 162 14 170
-16z m-182 -124 c38 -41 39 -127 2 -182 -26 -37 -55 -49 -55 -23 0 8 -4 17 -9
20 -5 4 -9 -27 -9 -70 -1 -42 -3 -78 -6 -81 -3 -3 -17 9 -32 26 -14 17 -47 46
-73 63 -144 99 -197 192 -138 245 30 27 51 34 88 26 34 -6 93 -59 104 -92 3
-11 11 -21 16 -21 6 0 2 13 -7 30 -16 26 -16 32 -4 56 28 51 76 52 123 3z
m-1303 -34 c0 -8 -2 -15 -4 -15 -2 0 -6 7 -10 15 -3 8 -1 15 4 15 6 0 10 -7
10 -15z m626 -114 c-3 -20 -10 -54 -14 -76 l-8 -40 -8 35 c-5 19 -12 40 -16
45 -19 26 -18 60 2 93 l21 34 15 -27 c9 -18 12 -41 8 -64z m1244 -59 c0 -73
-37 -211 -72 -269 -33 -54 -74 -76 -101 -55 -7 5 -23 13 -37 17 -36 10 -101
56 -94 67 3 5 27 -3 52 -18 63 -37 137 -42 157 -10 29 44 63 162 70 243 7 87
25 105 25 25z m-450 -52 c26 -14 53 -74 45 -100 -11 -36 -50 -70 -80 -70 -15
0 -53 12 -85 26 -57 25 -57 26 -50 59 4 18 20 50 36 70 27 35 30 37 71 31 24
-3 52 -10 63 -16z m-803 -42 c-3 -8 -6 -5 -6 6 -1 11 2 17 5 13 3 -3 4 -12 1
-19z m-357 -212 c0 -13 -101 -86 -126 -91 l-29 -7 25 14 c14 8 41 31 62 51 30
31 68 49 68 33z m433 -20 c3 -7 -3 -26 -14 -42 l-19 -29 0 43 c0 29 4 42 14
42 8 0 16 -6 19 -14z m-736 -28 c-3 -8 -6 -5 -6 6 -1 11 2 17 5 13 3 -3 4 -12
1 -19z m29 -45 c-7 -7 -26 7 -26 19 0 6 6 6 15 -2 9 -7 13 -15 11 -17z m1560
-113 c11 0 13 -6 9 -20 -4 -12 -1 -29 6 -38 11 -14 11 -15 -1 -4 -18 16 -30
15 -30 -2 0 -8 -7 -17 -16 -20 -14 -5 -15 0 -10 39 5 29 3 45 -3 45 -6 0 -8 7
-5 15 5 13 8 13 21 0 8 -8 21 -15 29 -15z"/>
<path d="M1445 2336 c-38 -17 -100 -77 -121 -117 -23 -45 -11 -46 32 -4 42 42
126 85 167 85 29 0 36 17 15 38 -16 16 -55 15 -93 -2z"/>
<path d="M1631 1774 c-26 -11 -37 -11 -48 -3 -24 20 -27 0 -7 -39 18 -33 25
-37 63 -40 47 -4 81 17 81 49 0 10 5 21 10 24 37 23 -49 30 -99 9z"/>
<path d="M1630 1141 c0 -12 87 -91 100 -91 17 0 50 39 50 59 0 31 -17 33 -24
3 -10 -48 -20 -56 -47 -38 -13 8 -33 29 -44 46 -20 29 -35 39 -35 21z"/>
</g>
</svg>
